<?xml version="1.0" encoding="utf-8"?>
<!-- Generator: Adobe Illustrator 19.0.0, SVG Export Plug-In . SVG Version: 6.00 Build 0)  -->
<svg version="1.1" id="Warstwa_1" xmlns="http://www.w3.org/2000/svg" xmlns:xlink="http://www.w3.org/1999/xlink" x="0px" y="0px"
	 viewBox="-28 356 537.6 129.9" style="enable-background:new -28 356 537.6 129.9;" xml:space="preserve">
<style type="text/css">
	.st0{fill:#1D3557;}
</style>
<g id="XMLID_79_">
	<path id="XMLID_80_" class="st0" d="M138,380.8h8.9c0.8,0,1.3,0.2,1.6,0.5s0.5,0.9,0.5,1.6v23.3c0,1.3-0.1,2.5-0.1,3.6
		c-0.1,1.1-0.4,2.4-0.9,3.9l-3,8.2c-0.2,0.6-0.5,1.1-0.9,1.5c-0.4,0.4-0.9,0.6-1.5,0.6h-8c-0.6,0-1.2-0.1-1.7-0.4
		c-0.5-0.3-0.9-0.7-1-1.4l-2.8-9.8c-0.1-0.4-0.3-0.7-0.4-0.8c-0.2-0.1-0.4-0.2-0.6-0.2h-0.5c-0.2,0-0.5,0.1-0.6,0.2
		c-0.2,0.1-0.3,0.4-0.4,0.8l-2.8,9.8c-0.2,0.6-0.5,1-0.9,1.3c-0.4,0.3-1,0.5-1.6,0.5h-7.9c-0.6,0-1.2-0.2-1.6-0.6
		c-0.5-0.4-0.8-0.9-1-1.6l-3-8.3c-0.5-1.5-0.8-2.8-0.9-3.9c-0.1-1.1-0.1-2.3-0.1-3.6v-23c0-0.8,0.2-1.3,0.5-1.6
		c0.3-0.3,0.9-0.5,1.6-0.5h9.2c0.8,0,1.3,0.2,1.6,0.5c0.3,0.3,0.5,0.9,0.5,1.6v22l3.5-7.6c0.3-0.7,0.7-1.2,1.3-1.4
		c0.5-0.3,1.2-0.4,1.9-0.4h2.5c0.8,0,1.4,0.1,1.9,0.4c0.5,0.3,0.9,0.8,1.3,1.4l3.5,7.6v-22c0-0.8,0.2-1.3,0.5-1.6
		C136.7,381,137.2,380.8,138,380.8z"/>
	<path id="XMLID_82_" class="st0" d="M178.7,424H169c-0.8,0-1.3-0.2-1.6-0.5c-0.3-0.3-0.5-0.9-0.5-1.7v-7.7l-9.2-12.3
		c-0.9-1.2-1.5-2.3-1.8-3.2c-0.3-0.9-0.4-2.3-0.4-4.1V383c0-0.8,0.2-1.3,0.5-1.6c0.3-0.3,0.9-0.5,1.6-0.5h9.2c0.8,0,1.3,0.2,1.6,0.5
		c0.3,0.3,0.5,0.9,0.5,1.6v9.8c0,0.4,0,0.8,0.1,1.3c0,0.4,0.2,0.9,0.5,1.3l2.8,4.3c0.2,0.4,0.4,0.6,0.6,0.8c0.2,0.2,0.5,0.2,0.8,0.2
		h0.6c0.3,0,0.6-0.1,0.8-0.2c0.2-0.2,0.4-0.4,0.6-0.8l2.8-4.3c0.3-0.4,0.4-0.8,0.5-1.3c0-0.4,0.1-0.9,0.1-1.3V383
		c0-0.8,0.2-1.3,0.5-1.6c0.3-0.3,0.9-0.5,1.6-0.5h8.9c0.8,0,1.3,0.2,1.6,0.5c0.3,0.3,0.5,0.9,0.5,1.6v11.5c0,1.8-0.2,3.2-0.5,4.1
		c-0.3,0.9-0.9,2-1.8,3.2l-9.1,12.4v7.6c0,0.8-0.2,1.3-0.5,1.7C180,423.8,179.5,424,178.7,424z"/>
	<path id="XMLID_84_" class="st0" d="M219.5,424h-9.7c-0.8,0-1.3-0.2-1.6-0.5c-0.3-0.3-0.5-0.9-0.5-1.7v-29.4h-8.8
		c-0.8,0-1.3-0.2-1.6-0.5c-0.3-0.3-0.5-0.9-0.5-1.6V383c0-0.8,0.2-1.3,0.5-1.6c0.3-0.3,0.9-0.5,1.6-0.5h31.7c0.8,0,1.3,0.2,1.6,0.5
		c0.3,0.3,0.5,0.9,0.5,1.6v7.3c0,0.8-0.2,1.3-0.5,1.6c-0.3,0.3-0.9,0.5-1.6,0.5h-8.8v29.5c0,0.8-0.2,1.3-0.5,1.7
		C220.8,423.8,220.3,424,219.5,424z"/>
	<path id="XMLID_86_" class="st0" d="M269.5,380.8h8.9c0.8,0,1.3,0.2,1.6,0.5c0.3,0.3,0.5,0.9,0.5,1.6v23.3c0,1.3-0.1,2.5-0.1,3.6
		c-0.1,1.1-0.4,2.4-0.9,3.9l-3,8.2c-0.2,0.6-0.5,1.1-0.9,1.5c-0.4,0.4-0.9,0.6-1.5,0.6h-8c-0.6,0-1.2-0.1-1.7-0.4
		c-0.5-0.3-0.9-0.7-1-1.4l-2.8-9.8c-0.1-0.4-0.3-0.7-0.4-0.8c-0.2-0.1-0.4-0.2-0.6-0.2H259c-0.2,0-0.5,0.1-0.6,0.2
		c-0.2,0.1-0.3,0.4-0.4,0.8l-2.8,9.8c-0.2,0.6-0.5,1-0.9,1.3c-0.4,0.3-1,0.5-1.6,0.5h-7.9c-0.6,0-1.2-0.2-1.6-0.6
		c-0.5-0.4-0.8-0.9-1-1.6l-3-8.3c-0.5-1.5-0.8-2.8-0.9-3.9s-0.1-2.3-0.1-3.6v-23c0-0.8,0.2-1.3,0.5-1.6c0.3-0.3,0.9-0.5,1.6-0.5h9.2
		c0.8,0,1.3,0.2,1.6,0.5c0.3,0.3,0.5,0.9,0.5,1.6v22l3.5-7.6c0.3-0.7,0.7-1.2,1.3-1.4c0.5-0.3,1.2-0.4,1.9-0.4h2.5
		c0.8,0,1.4,0.1,1.9,0.4c0.5,0.3,0.9,0.8,1.3,1.4l3.5,7.6v-22c0-0.8,0.2-1.3,0.5-1.6C268.2,381,268.8,380.8,269.5,380.8z"/>
	<path id="XMLID_88_" class="st0" d="M325,412.7c0,1.8-0.3,3.5-0.8,5s-1.5,2.8-2.9,3.8c-1.4,1.1-3.3,1.9-5.7,2.5
		c-2.4,0.6-5.5,0.9-9.2,0.9s-6.8-0.3-9.2-0.9c-2.4-0.6-4.4-1.4-5.7-2.5c-1.4-1.1-2.3-2.3-2.9-3.8s-0.8-3.2-0.8-5v-20.5
		c0-1.8,0.3-3.5,0.8-5s1.5-2.8,2.9-3.9s3.3-1.9,5.7-2.5c2.4-0.6,5.5-0.9,9.2-0.9s6.8,0.3,9.2,0.9c2.4,0.6,4.3,1.4,5.7,2.5
		c1.4,1.1,2.3,2.4,2.9,3.9c0.5,1.5,0.8,3.2,0.8,5V412.7z M316.7,376.2l-20.9,2.6c-0.7,0.1-1.2-0.1-1.5-0.4c-0.3-0.4-0.5-0.9-0.5-1.6
		V371c0-0.8,0.2-1.3,0.5-1.6c0.3-0.3,0.9-0.5,1.6-0.6l20.9-2.6c0.7-0.1,1.2,0.1,1.5,0.4c0.3,0.4,0.5,0.9,0.5,1.6v5.8
		c0,0.8-0.2,1.3-0.5,1.6C318,376,317.4,376.2,316.7,376.2z M301.3,410.5c0,0.8,0.3,1.5,0.9,2s2,0.8,4.1,0.8c2.2,0,3.5-0.3,4.1-0.8
		s0.9-1.2,0.9-2v-16.1c0-0.8-0.3-1.4-0.9-1.9s-2-0.8-4.1-0.8c-2.2,0-3.5,0.3-4.1,0.8s-0.9,1.2-0.9,1.9V410.5z"/>
	<path id="XMLID_92_" class="st0" d="M344,424h-9.2c-0.8,0-1.3-0.2-1.6-0.5c-0.3-0.3-0.5-0.9-0.5-1.7V383c0-0.8,0.2-1.3,0.5-1.6
		c0.3-0.3,0.9-0.5,1.6-0.5h20c4.5,0,7.6,0.9,9.3,2.8c1.7,1.9,2.5,4.3,2.5,7.2v2.8c0,1.7-0.3,3.1-0.8,4.3c-0.5,1.2-1.4,2-2.6,2.5
		c2.2,0.2,3.9,1.1,5.3,2.6c1.3,1.5,2,3.5,2,6.1v12.7c0,0.8-0.2,1.3-0.5,1.7c-0.3,0.3-0.9,0.5-1.7,0.5H359c-0.8,0-1.3-0.2-1.7-0.5
		c-0.4-0.3-0.5-0.9-0.5-1.7v-9.2c0-0.9-0.2-1.5-0.5-1.9c-0.3-0.4-0.9-0.6-1.8-0.6h-8.4V422c0,0.8-0.2,1.3-0.5,1.7
		C345.3,423.8,344.7,424,344,424z M346.1,391.6v7.7h4.5c1,0,1.7-0.3,2.1-0.8s0.5-1.2,0.5-2v-2c0-0.8-0.2-1.5-0.5-2
		c-0.4-0.5-1.1-0.8-2.1-0.8h-4.5V391.6z"/>
	<path id="XMLID_95_" class="st0" d="M388.3,424h-9c-0.8,0-1.3-0.2-1.6-0.5c-0.3-0.3-0.5-0.9-0.5-1.7V383c0-0.8,0.2-1.3,0.5-1.6
		c0.3-0.3,0.9-0.5,1.6-0.5h6.2c0.8,0,1.4,0.1,2,0.4c0.5,0.2,1.1,0.7,1.6,1.3l11.6,13.3V383c0-0.8,0.2-1.3,0.5-1.6
		c0.3-0.3,0.9-0.5,1.6-0.5h9c0.8,0,1.3,0.2,1.7,0.5c0.3,0.3,0.5,0.9,0.5,1.6v38.9c0,0.8-0.2,1.3-0.5,1.7c-0.3,0.3-0.9,0.5-1.7,0.5
		h-9c-0.8,0-1.3-0.2-1.6-0.5c-0.3-0.3-0.5-0.9-0.5-1.7v-7.4L390.5,402v19.8c0,0.8-0.2,1.3-0.5,1.7C389.6,423.8,389.1,424,388.3,424z
		"/>
	<path id="XMLID_97_" class="st0" d="M423.5,424c-0.8,0-1.3-0.2-1.6-0.5c-0.3-0.3-0.5-0.9-0.5-1.7v-7.1c0-0.8,0.2-1.3,0.5-1.7
		c0.3-0.3,0.9-0.5,1.6-0.5h5.9v-20.1h-5.9c-0.8,0-1.3-0.2-1.6-0.5c-0.3-0.3-0.5-0.9-0.5-1.6V383c0-0.8,0.2-1.3,0.5-1.6
		c0.3-0.3,0.9-0.5,1.6-0.5h25.6c0.8,0,1.3,0.2,1.6,0.5c0.3,0.3,0.5,0.9,0.5,1.6v7.3c0,0.8-0.2,1.3-0.5,1.6c-0.3,0.3-0.9,0.5-1.6,0.5
		h-5.8v20.2h5.8c0.8,0,1.3,0.2,1.6,0.5c0.3,0.3,0.5,0.9,0.5,1.7v7.1c0,0.8-0.2,1.3-0.5,1.7s-0.9,0.5-1.6,0.5L423.5,424L423.5,424z"
		/>
	<path id="XMLID_99_" class="st0" d="M470.9,421.8c0,0.8-0.2,1.3-0.5,1.7c-0.3,0.3-0.9,0.5-1.7,0.5h-8.8c-0.8,0-1.3-0.2-1.7-0.5
		c-0.4-0.3-0.5-0.9-0.5-1.7V406c0-1.2,0.2-2.6,0.6-4.1s1-3.4,1.8-5.5l5.2-13.6c0.2-0.7,0.6-1.2,1.1-1.5s1.1-0.5,2-0.5h16.1
		c0.8,0,1.4,0.2,1.9,0.5s0.9,0.8,1.1,1.5l5.2,13.6c0.8,2.1,1.4,3.9,1.8,5.5c0.4,1.6,0.6,2.9,0.6,4.1v15.8c0,0.8-0.2,1.3-0.5,1.7
		s-0.9,0.5-1.6,0.5h-9.1c-0.8,0-1.4-0.2-1.8-0.5c-0.4-0.3-0.6-0.9-0.6-1.7v-8.4h-10.6V421.8z M474.3,393.4l-2.8,9.1h9.4l-2.8-9.1
		c-0.2-0.4-0.3-0.6-0.5-0.8c-0.2-0.2-0.4-0.2-0.6-0.2h-1.5c-0.2,0-0.5,0.1-0.6,0.2C474.6,392.8,474.5,393,474.3,393.4z"/>
</g>
<g id="XMLID_9_">
	<g id="XMLID_10_">
		<g id="XMLID_11_">
			<path id="XMLID_7_" class="st0" d="M28.8,411.9l25.5-44.2c-3.7-0.8-7.6-1.3-11.6-1.3c-12.8,0-24.6,4.5-33.8,12.1l19.6,34
				L28.8,411.9z"/>
			<path id="XMLID_6_" class="st0" d="M93.7,403.8c-4.9-15.7-16.9-28.2-32.1-33.9l-19.5,33.9H93.7z"/>
			<path id="XMLID_5_" class="st0" d="M24.1,419.9L3.2,383.8c-8.7,9.5-14.1,22.2-14.1,36.1c0,3.7,0.4,7.3,1.1,10.7h40.1L24.1,419.9z
				"/>
			<path id="XMLID_4_" class="st0" d="M-8.4,436c4.9,15.7,16.9,28.2,32.1,33.9L43.3,436H-8.4z"/>
			<path id="XMLID_3_" class="st0" d="M95.1,409.2H55l1.6,2.7l25.5,44.2c8.7-9.5,14.1-22.2,14.1-36.1
				C96.2,416.2,95.8,412.7,95.1,409.2z"/>
			<path id="XMLID_2_" class="st0" d="M51.9,436L31,472.2c3.7,0.8,7.6,1.3,11.6,1.3c12.8,0,24.6-4.5,33.8-12.1l-19.6-34L51.9,436z"
				/>
		</g>
	</g>
</g>
<g id="XMLID_1_">
	<path id="XMLID_102_" class="st0" d="M118.4,473.4h-9.3c-0.8,0-1.3-0.2-1.6-0.5c-0.3-0.3-0.5-0.9-0.5-1.7v-38.8
		c0-0.8,0.2-1.3,0.5-1.7c0.3-0.3,0.9-0.5,1.6-0.5h9.3c0.8,0,1.3,0.2,1.6,0.5c0.3,0.3,0.5,0.9,0.5,1.7v13.8h2.4l6.2-14
		c0.3-0.7,0.7-1.2,1.1-1.5c0.4-0.3,1.1-0.5,1.9-0.5h9.2c0.7,0,1.1,0.2,1.4,0.5c0.2,0.3,0.2,0.8-0.1,1.5l-6.1,14
		c2.2,0.1,4,0.9,5.4,2.4c1.3,1.5,2,3.4,2,5.8v16.9c0,0.8-0.2,1.3-0.5,1.7c-0.3,0.3-0.9,0.5-1.6,0.5h-9.2c-0.8,0-1.3-0.2-1.6-0.5
		c-0.3-0.3-0.5-0.9-0.5-1.7v-11.7c0-0.6-0.2-1.1-0.5-1.5s-0.8-0.5-1.4-0.5h-7.9v13.7c0,0.8-0.2,1.3-0.5,1.7
		C119.7,473.3,119.2,473.4,118.4,473.4z"/>
	<path id="XMLID_104_" class="st0" d="M188.3,462.1c0,1.8-0.3,3.5-0.8,5s-1.5,2.8-2.9,3.8c-1.4,1.1-3.3,1.9-5.7,2.5
		s-5.5,0.9-9.2,0.9s-6.8-0.3-9.2-0.9s-4.4-1.4-5.7-2.5c-1.4-1.1-2.3-2.3-2.9-3.8s-0.8-3.2-0.8-5v-20.5c0-1.8,0.3-3.5,0.8-5
		s1.5-2.8,2.9-3.9s3.3-1.9,5.7-2.5s5.5-0.9,9.2-0.9s6.8,0.3,9.2,0.9s4.3,1.4,5.7,2.5s2.3,2.4,2.9,3.9s0.8,3.2,0.8,5V462.1z
		 M164.7,459.9c0,0.8,0.3,1.5,0.9,2s2,0.8,4.1,0.8c2.2,0,3.5-0.3,4.1-0.8s0.9-1.2,0.9-2v-16.1c0-0.8-0.3-1.4-0.9-1.9
		c-0.6-0.5-2-0.8-4.1-0.8c-2.2,0-3.5,0.3-4.1,0.8s-0.9,1.2-0.9,1.9V459.9z"/>
	<path id="XMLID_107_" class="st0" d="M207.1,473.4h-9c-0.8,0-1.3-0.2-1.6-0.5c-0.3-0.3-0.5-0.9-0.5-1.7v-38.8
		c0-0.8,0.2-1.3,0.5-1.7c0.3-0.3,0.9-0.5,1.6-0.5h6.2c0.8,0,1.4,0.1,2,0.4c0.5,0.2,1.1,0.7,1.6,1.3l11.6,13.3v-12.8
		c0-0.8,0.2-1.3,0.5-1.7c0.3-0.3,0.9-0.5,1.6-0.5h9c0.8,0,1.3,0.2,1.6,0.5c0.3,0.3,0.5,0.9,0.5,1.7v38.9c0,0.8-0.2,1.3-0.5,1.7
		c-0.3,0.3-0.9,0.5-1.6,0.5h-9c-0.8,0-1.3-0.2-1.6-0.5c-0.3-0.3-0.5-0.9-0.5-1.7v-7.4l-10.3-12.4v19.8c0,0.8-0.2,1.3-0.5,1.7
		C208.4,473.3,207.9,473.4,207.1,473.4z"/>
	<path id="XMLID_109_" class="st0" d="M261.5,473.4h-9.7c-0.8,0-1.3-0.2-1.6-0.5c-0.3-0.3-0.5-0.9-0.5-1.7v-29.4h-8.8
		c-0.8,0-1.3-0.2-1.6-0.5c-0.3-0.3-0.5-0.9-0.5-1.7v-7.3c0-0.8,0.2-1.3,0.5-1.7c0.3-0.3,0.9-0.5,1.6-0.5h31.7c0.8,0,1.3,0.2,1.6,0.5
		c0.3,0.3,0.5,0.9,0.5,1.7v7.3c0,0.8-0.2,1.3-0.5,1.7c-0.3,0.3-0.9,0.5-1.6,0.5h-8.8v29.5c0,0.8-0.2,1.3-0.5,1.7
		C262.8,473.3,262.3,473.4,261.5,473.4z"/>
	<path id="XMLID_111_" class="st0" d="M310.5,473.4h-27.8c-0.8,0-1.3-0.2-1.6-0.5c-0.3-0.3-0.5-0.9-0.5-1.7v-38.8
		c0-0.8,0.2-1.3,0.5-1.7c0.3-0.3,0.9-0.5,1.6-0.5h27.8c0.8,0,1.3,0.2,1.7,0.5c0.3,0.3,0.5,0.9,0.5,1.7v7c0,0.8-0.2,1.3-0.5,1.7
		c-0.3,0.3-0.9,0.5-1.7,0.5h-16.6v4.6h11.7c0.8,0,1.3,0.2,1.6,0.5c0.3,0.3,0.5,0.9,0.5,1.7v6.4c0,0.8-0.2,1.3-0.5,1.7
		s-0.9,0.5-1.6,0.5h-11.7v5.2h16.6c0.8,0,1.3,0.2,1.7,0.5c0.3,0.3,0.5,0.9,0.5,1.6v7c0,0.8-0.2,1.3-0.5,1.7
		C311.8,473.3,311.3,473.4,310.5,473.4z"/>
	<path id="XMLID_113_" class="st0" d="M330.9,473.4h-9c-0.8,0-1.3-0.2-1.6-0.5c-0.3-0.3-0.5-0.9-0.5-1.7v-38.8
		c0-0.8,0.2-1.3,0.5-1.7c0.3-0.3,0.9-0.5,1.6-0.5h6.2c0.8,0,1.4,0.1,2,0.4c0.5,0.2,1.1,0.7,1.6,1.3l11.6,13.3v-12.8
		c0-0.8,0.2-1.3,0.5-1.7c0.3-0.3,0.9-0.5,1.6-0.5h9c0.8,0,1.3,0.2,1.7,0.5c0.3,0.3,0.5,0.9,0.5,1.7v38.9c0,0.8-0.2,1.3-0.5,1.7
		c-0.3,0.3-0.9,0.5-1.7,0.5h-9c-0.8,0-1.3-0.2-1.6-0.5c-0.3-0.3-0.5-0.9-0.5-1.7v-7.4L333,451.5v19.8c0,0.8-0.2,1.3-0.5,1.7
		C332.2,473.3,331.7,473.4,330.9,473.4z"/>
	<path id="XMLID_115_" class="st0" d="M385.3,473.4h-9.7c-0.8,0-1.3-0.2-1.7-0.5c-0.4-0.3-0.5-0.9-0.5-1.7v-29.4h-8.8
		c-0.8,0-1.3-0.2-1.6-0.5c-0.3-0.3-0.5-0.9-0.5-1.7v-7.3c0-0.8,0.2-1.3,0.5-1.7c0.3-0.3,0.9-0.5,1.6-0.5h31.7c0.8,0,1.3,0.2,1.7,0.5
		c0.3,0.3,0.5,0.9,0.5,1.7v7.3c0,0.8-0.2,1.3-0.5,1.7s-0.9,0.5-1.7,0.5h-8.8v29.5c0,0.8-0.2,1.3-0.5,1.7
		C386.6,473.3,386.1,473.4,385.3,473.4z"/>
	<path id="XMLID_117_" class="st0" d="M441.1,462.1c0,1.8-0.3,3.5-0.8,5s-1.5,2.8-2.9,3.8c-1.4,1.1-3.3,1.9-5.7,2.5
		c-2.4,0.6-5.5,0.9-9.2,0.9s-6.8-0.3-9.2-0.9c-2.4-0.6-4.3-1.4-5.7-2.5c-1.4-1.1-2.3-2.3-2.9-3.8s-0.8-3.2-0.8-5v-29.7
		c0-0.8,0.2-1.3,0.5-1.7c0.3-0.3,0.9-0.5,1.7-0.5h9.4c0.8,0,1.3,0.2,1.7,0.5c0.3,0.3,0.5,0.9,0.5,1.7v27.4c0,0.8,0.3,1.5,0.9,2
		s1.9,0.8,4,0.8s3.5-0.3,4.1-0.8s0.9-1.2,0.9-2v-27.4c0-0.8,0.2-1.3,0.5-1.7c0.3-0.3,0.9-0.5,1.6-0.5h9.1c0.8,0,1.3,0.2,1.7,0.5
		c0.3,0.3,0.5,0.9,0.5,1.7L441.1,462.1L441.1,462.1z"/>
</g>
</svg>
