<?xml version="1.0" encoding="utf-8"?>
<!-- Generator: Adobe Illustrator 19.0.0, SVG Export Plug-In . SVG Version: 6.00 Build 0)  -->
<svg version="1.1" id="Warstwa_1" xmlns="http://www.w3.org/2000/svg" xmlns:xlink="http://www.w3.org/1999/xlink" x="0px" y="0px"
	 viewBox="0 0 537.6 129.9" style="enable-background:new 0 0 537.6 129.9;" xml:space="preserve">
<style type="text/css">
	.st0{fill:#FFFFFF;}
</style>
<g id="XMLID_79_">
	<path id="XMLID_80_" class="st0" d="M166,24.8h8.9c0.8,0,1.3,0.2,1.6,0.5c0.3,0.3,0.5,0.9,0.5,1.6v23.3c0,1.3-0.1,2.5-0.1,3.6
		c-0.1,1.1-0.4,2.4-0.9,3.9l-3,8.2c-0.2,0.6-0.5,1.1-0.9,1.5c-0.4,0.4-0.9,0.6-1.5,0.6h-8c-0.6,0-1.2-0.1-1.7-0.4
		c-0.5-0.3-0.9-0.7-1-1.4l-2.8-9.8c-0.1-0.4-0.3-0.7-0.4-0.8c-0.2-0.1-0.4-0.2-0.6-0.2h-0.5c-0.2,0-0.5,0.1-0.6,0.2
		c-0.2,0.1-0.3,0.4-0.4,0.8l-2.8,9.8c-0.2,0.6-0.5,1-0.9,1.3c-0.4,0.3-1,0.5-1.6,0.5h-7.9c-0.6,0-1.2-0.2-1.6-0.6
		c-0.5-0.4-0.8-0.9-1-1.6l-3-8.3c-0.5-1.5-0.8-2.8-0.9-3.9c-0.1-1.1-0.1-2.3-0.1-3.6V27c0-0.8,0.2-1.3,0.5-1.6
		c0.3-0.3,0.9-0.5,1.6-0.5h9.2c0.8,0,1.3,0.2,1.6,0.5c0.3,0.3,0.5,0.9,0.5,1.6V49l3.5-7.6c0.3-0.7,0.7-1.2,1.3-1.4
		c0.5-0.3,1.2-0.4,1.9-0.4h2.5c0.8,0,1.4,0.1,1.9,0.4c0.5,0.3,0.9,0.8,1.3,1.4l3.5,7.6V27c0-0.8,0.2-1.3,0.5-1.6
		C164.7,25,165.2,24.8,166,24.8z"/>
	<path id="XMLID_82_" class="st0" d="M206.7,68H197c-0.8,0-1.3-0.2-1.6-0.5c-0.3-0.3-0.5-0.9-0.5-1.7v-7.7l-9.2-12.3
		c-0.9-1.2-1.5-2.3-1.8-3.2c-0.3-0.9-0.4-2.3-0.4-4.1V27c0-0.8,0.2-1.3,0.5-1.6c0.3-0.3,0.9-0.5,1.6-0.5h9.2c0.8,0,1.3,0.2,1.6,0.5
		c0.3,0.3,0.5,0.9,0.5,1.6v9.8c0,0.4,0,0.8,0.1,1.3c0,0.4,0.2,0.9,0.5,1.3l2.8,4.3c0.2,0.4,0.4,0.6,0.6,0.8c0.2,0.2,0.5,0.2,0.8,0.2
		h0.6c0.3,0,0.6-0.1,0.8-0.2c0.2-0.2,0.4-0.4,0.6-0.8l2.8-4.3c0.3-0.4,0.4-0.8,0.5-1.3c0-0.4,0.1-0.9,0.1-1.3V27
		c0-0.8,0.2-1.3,0.5-1.6c0.3-0.3,0.9-0.5,1.6-0.5h8.9c0.8,0,1.3,0.2,1.6,0.5c0.3,0.3,0.5,0.9,0.5,1.6v11.5c0,1.8-0.2,3.2-0.5,4.1
		c-0.3,0.9-0.9,2-1.8,3.2l-9.1,12.4v7.6c0,0.8-0.2,1.3-0.5,1.7C208,67.8,207.5,68,206.7,68z"/>
	<path id="XMLID_84_" class="st0" d="M247.5,68h-9.7c-0.8,0-1.3-0.2-1.6-0.5c-0.3-0.3-0.5-0.9-0.5-1.7V36.4h-8.8
		c-0.8,0-1.3-0.2-1.6-0.5c-0.3-0.3-0.5-0.9-0.5-1.6V27c0-0.8,0.2-1.3,0.5-1.6c0.3-0.3,0.9-0.5,1.6-0.5h31.7c0.8,0,1.3,0.2,1.6,0.5
		c0.3,0.3,0.5,0.9,0.5,1.6v7.3c0,0.8-0.2,1.3-0.5,1.6c-0.3,0.3-0.9,0.5-1.6,0.5h-8.8v29.5c0,0.8-0.2,1.3-0.5,1.7
		C248.8,67.8,248.3,68,247.5,68z"/>
	<path id="XMLID_86_" class="st0" d="M297.5,24.8h8.9c0.8,0,1.3,0.2,1.6,0.5c0.3,0.3,0.5,0.9,0.5,1.6v23.3c0,1.3-0.1,2.5-0.1,3.6
		c-0.1,1.1-0.4,2.4-0.9,3.9l-3,8.2c-0.2,0.6-0.5,1.1-0.9,1.5c-0.4,0.4-0.9,0.6-1.5,0.6h-8c-0.6,0-1.2-0.1-1.7-0.4
		c-0.5-0.3-0.9-0.7-1-1.4l-2.8-9.8c-0.1-0.4-0.3-0.7-0.4-0.8c-0.2-0.1-0.4-0.2-0.6-0.2H287c-0.2,0-0.5,0.1-0.6,0.2
		c-0.2,0.1-0.3,0.4-0.4,0.8l-2.8,9.8c-0.2,0.6-0.5,1-0.9,1.3c-0.4,0.3-1,0.5-1.6,0.5h-7.9c-0.6,0-1.2-0.2-1.6-0.6
		c-0.5-0.4-0.8-0.9-1-1.6l-3-8.3c-0.5-1.5-0.8-2.8-0.9-3.9c-0.1-1.1-0.1-2.3-0.1-3.6V27c0-0.8,0.2-1.3,0.5-1.6
		c0.3-0.3,0.9-0.5,1.6-0.5h9.2c0.8,0,1.3,0.2,1.6,0.5c0.3,0.3,0.5,0.9,0.5,1.6V49l3.5-7.6c0.3-0.7,0.7-1.2,1.3-1.4
		c0.5-0.3,1.2-0.4,1.9-0.4h2.5c0.8,0,1.4,0.1,1.9,0.4c0.5,0.3,0.9,0.8,1.3,1.4l3.5,7.6V27c0-0.8,0.2-1.3,0.5-1.6
		C296.2,25,296.8,24.8,297.5,24.8z"/>
	<path id="XMLID_88_" class="st0" d="M353,56.7c0,1.8-0.3,3.5-0.8,5s-1.5,2.8-2.9,3.8c-1.4,1.1-3.3,1.9-5.7,2.5
		c-2.4,0.6-5.5,0.9-9.2,0.9c-3.7,0-6.8-0.3-9.2-0.9c-2.4-0.6-4.4-1.4-5.7-2.5c-1.4-1.1-2.3-2.3-2.9-3.8s-0.8-3.2-0.8-5V36.2
		c0-1.8,0.3-3.5,0.8-5c0.5-1.5,1.5-2.8,2.9-3.9c1.4-1.1,3.3-1.9,5.7-2.5c2.4-0.6,5.5-0.9,9.2-0.9c3.7,0,6.8,0.3,9.2,0.9
		c2.4,0.6,4.3,1.4,5.7,2.5c1.4,1.1,2.3,2.4,2.9,3.9c0.5,1.5,0.8,3.2,0.8,5V56.7z M344.7,20.2l-20.9,2.6c-0.7,0.1-1.2-0.1-1.5-0.4
		c-0.3-0.4-0.5-0.9-0.5-1.6v-5.8c0-0.8,0.2-1.3,0.5-1.6c0.3-0.3,0.9-0.5,1.6-0.6l20.9-2.6c0.7-0.1,1.2,0.1,1.5,0.4
		c0.3,0.4,0.5,0.9,0.5,1.6v5.8c0,0.8-0.2,1.3-0.5,1.6C346,20,345.4,20.2,344.7,20.2z M329.3,54.5c0,0.8,0.3,1.5,0.9,2
		c0.6,0.5,2,0.8,4.1,0.8c2.2,0,3.5-0.3,4.1-0.8c0.6-0.5,0.9-1.2,0.9-2V38.4c0-0.8-0.3-1.4-0.9-1.9c-0.6-0.5-2-0.8-4.1-0.8
		c-2.2,0-3.5,0.3-4.1,0.8s-0.9,1.2-0.9,1.9V54.5z"/>
	<path id="XMLID_92_" class="st0" d="M372,68h-9.2c-0.8,0-1.3-0.2-1.6-0.5c-0.3-0.3-0.5-0.9-0.5-1.7V27c0-0.8,0.2-1.3,0.5-1.6
		c0.3-0.3,0.9-0.5,1.6-0.5h20c4.5,0,7.6,0.9,9.3,2.8c1.7,1.9,2.5,4.3,2.5,7.2v2.8c0,1.7-0.3,3.1-0.8,4.3c-0.5,1.2-1.4,2-2.6,2.5
		c2.2,0.2,3.9,1.1,5.3,2.6c1.3,1.5,2,3.5,2,6.1v12.7c0,0.8-0.2,1.3-0.5,1.7c-0.3,0.3-0.9,0.5-1.7,0.5H387c-0.8,0-1.3-0.2-1.7-0.5
		s-0.5-0.9-0.5-1.7v-9.2c0-0.9-0.2-1.5-0.5-1.9c-0.3-0.4-0.9-0.6-1.8-0.6h-8.4v11.8c0,0.8-0.2,1.3-0.5,1.7
		C373.3,67.8,372.7,68,372,68z M374.1,35.6v7.7h4.5c1,0,1.7-0.3,2.1-0.8c0.4-0.5,0.5-1.2,0.5-2v-2c0-0.8-0.2-1.5-0.5-2
		c-0.4-0.5-1.1-0.8-2.1-0.8H374.1z"/>
	<path id="XMLID_95_" class="st0" d="M416.3,68h-9c-0.8,0-1.3-0.2-1.6-0.5c-0.3-0.3-0.5-0.9-0.5-1.7V27c0-0.8,0.2-1.3,0.5-1.6
		c0.3-0.3,0.9-0.5,1.6-0.5h6.2c0.8,0,1.4,0.1,2,0.4c0.5,0.2,1.1,0.7,1.6,1.3l11.6,13.3V27c0-0.8,0.2-1.3,0.5-1.6
		c0.3-0.3,0.9-0.5,1.6-0.5h9c0.8,0,1.3,0.2,1.7,0.5c0.3,0.3,0.5,0.9,0.5,1.6v38.9c0,0.8-0.2,1.3-0.5,1.7c-0.3,0.3-0.9,0.5-1.7,0.5
		h-9c-0.8,0-1.3-0.2-1.6-0.5c-0.3-0.3-0.5-0.9-0.5-1.7v-7.4L418.5,46v19.8c0,0.8-0.2,1.3-0.5,1.7C417.6,67.8,417.1,68,416.3,68z"/>
	<path id="XMLID_97_" class="st0" d="M451.5,68c-0.8,0-1.3-0.2-1.6-0.5c-0.3-0.3-0.5-0.9-0.5-1.7v-7.1c0-0.8,0.2-1.3,0.5-1.7
		c0.3-0.3,0.9-0.5,1.6-0.5h5.9V36.4h-5.9c-0.8,0-1.3-0.2-1.6-0.5c-0.3-0.3-0.5-0.9-0.5-1.6V27c0-0.8,0.2-1.3,0.5-1.6
		c0.3-0.3,0.9-0.5,1.6-0.5h25.6c0.8,0,1.3,0.2,1.6,0.5c0.3,0.3,0.5,0.9,0.5,1.6v7.3c0,0.8-0.2,1.3-0.5,1.6c-0.3,0.3-0.9,0.5-1.6,0.5
		h-5.8v20.2h5.8c0.8,0,1.3,0.2,1.6,0.5c0.3,0.3,0.5,0.9,0.5,1.7v7.1c0,0.8-0.2,1.3-0.5,1.7s-0.9,0.5-1.6,0.5H451.5z"/>
	<path id="XMLID_99_" class="st0" d="M498.9,65.8c0,0.8-0.2,1.3-0.5,1.7c-0.3,0.3-0.9,0.5-1.7,0.5h-8.8c-0.8,0-1.3-0.2-1.7-0.5
		s-0.5-0.9-0.5-1.7V50c0-1.2,0.2-2.6,0.6-4.1s1-3.4,1.8-5.5l5.2-13.6c0.2-0.7,0.6-1.2,1.1-1.5c0.5-0.3,1.1-0.5,2-0.5h16.1
		c0.8,0,1.4,0.2,1.9,0.5c0.5,0.3,0.9,0.8,1.1,1.5l5.2,13.6c0.8,2.1,1.4,3.9,1.8,5.5c0.4,1.6,0.6,2.9,0.6,4.1v15.8
		c0,0.8-0.2,1.3-0.5,1.7s-0.9,0.5-1.6,0.5h-9.1c-0.8,0-1.4-0.2-1.8-0.5c-0.4-0.3-0.6-0.9-0.6-1.7v-8.4h-10.6V65.8z M502.3,37.4
		l-2.8,9.1h9.4l-2.8-9.1c-0.2-0.4-0.3-0.6-0.5-0.8c-0.2-0.2-0.4-0.2-0.6-0.2h-1.5c-0.2,0-0.5,0.1-0.6,0.2
		C502.6,36.8,502.5,37,502.3,37.4z"/>
</g>
<g id="XMLID_9_">
	<g id="XMLID_10_">
		<g id="XMLID_11_">
			<path id="XMLID_7_" class="st0" d="M56.8,55.9l25.5-44.2c-3.7-0.8-7.6-1.3-11.6-1.3c-12.8,0-24.6,4.5-33.8,12.1l19.6,34
				L56.8,55.9z"/>
			<path id="XMLID_6_" class="st0" d="M121.7,47.8c-4.9-15.7-16.9-28.2-32.1-33.9L70.1,47.8H121.7z"/>
			<path id="XMLID_5_" class="st0" d="M52.1,63.9L31.2,27.8C22.5,37.3,17.1,50,17.1,63.9c0,3.7,0.4,7.3,1.1,10.7h40.1L52.1,63.9z"/>
			<path id="XMLID_4_" class="st0" d="M19.6,80c4.9,15.7,16.9,28.2,32.1,33.9L71.3,80H19.6z"/>
			<path id="XMLID_3_" class="st0" d="M123.1,53.2H83l1.6,2.7l25.5,44.2c8.7-9.5,14.1-22.2,14.1-36.1
				C124.2,60.2,123.8,56.7,123.1,53.2z"/>
			<path id="XMLID_2_" class="st0" d="M79.9,80l-20.9,36.2c3.7,0.8,7.6,1.3,11.6,1.3c12.8,0,24.6-4.5,33.8-12.1l-19.6-34L79.9,80z"
				/>
		</g>
	</g>
</g>
<g id="XMLID_1_">
	<path id="XMLID_102_" class="st0" d="M146.4,117.4h-9.3c-0.8,0-1.3-0.2-1.6-0.5c-0.3-0.3-0.5-0.9-0.5-1.7V76.4
		c0-0.8,0.2-1.3,0.5-1.7c0.3-0.3,0.9-0.5,1.6-0.5h9.3c0.8,0,1.3,0.2,1.6,0.5c0.3,0.3,0.5,0.9,0.5,1.7v13.8h2.4l6.2-14
		c0.3-0.7,0.7-1.2,1.1-1.5s1.1-0.5,1.9-0.5h9.2c0.7,0,1.1,0.2,1.4,0.5c0.2,0.3,0.2,0.8-0.1,1.5l-6.1,14c2.2,0.1,4,0.9,5.4,2.4
		c1.3,1.5,2,3.4,2,5.8v16.9c0,0.8-0.2,1.3-0.5,1.7c-0.3,0.3-0.9,0.5-1.6,0.5h-9.2c-0.8,0-1.3-0.2-1.6-0.5c-0.3-0.3-0.5-0.9-0.5-1.7
		v-11.7c0-0.6-0.2-1.1-0.5-1.5c-0.3-0.4-0.8-0.5-1.4-0.5h-7.9v13.7c0,0.8-0.2,1.3-0.5,1.7C147.7,117.3,147.2,117.4,146.4,117.4z"/>
	<path id="XMLID_104_" class="st0" d="M216.3,106.1c0,1.8-0.3,3.5-0.8,5s-1.5,2.8-2.9,3.8c-1.4,1.1-3.3,1.9-5.7,2.5
		c-2.4,0.6-5.5,0.9-9.2,0.9c-3.7,0-6.8-0.3-9.2-0.9c-2.4-0.6-4.4-1.4-5.7-2.5c-1.4-1.1-2.3-2.3-2.9-3.8s-0.8-3.2-0.8-5V85.6
		c0-1.8,0.3-3.5,0.8-5s1.5-2.8,2.9-3.9c1.4-1.1,3.3-1.9,5.7-2.5c2.4-0.6,5.5-0.9,9.2-0.9c3.7,0,6.8,0.3,9.2,0.9
		c2.4,0.6,4.3,1.4,5.7,2.5c1.4,1.1,2.3,2.4,2.9,3.9s0.8,3.2,0.8,5V106.1z M192.7,103.9c0,0.8,0.3,1.5,0.9,2s2,0.8,4.1,0.8
		c2.2,0,3.5-0.3,4.1-0.8c0.6-0.5,0.9-1.2,0.9-2V87.8c0-0.8-0.3-1.4-0.9-1.9c-0.6-0.5-2-0.8-4.1-0.8c-2.2,0-3.5,0.3-4.1,0.8
		s-0.9,1.2-0.9,1.9V103.9z"/>
	<path id="XMLID_107_" class="st0" d="M235.1,117.4h-9c-0.8,0-1.3-0.2-1.6-0.5c-0.3-0.3-0.5-0.9-0.5-1.7V76.4c0-0.8,0.2-1.3,0.5-1.7
		c0.3-0.3,0.9-0.5,1.6-0.5h6.2c0.8,0,1.4,0.1,2,0.4c0.5,0.2,1.1,0.7,1.6,1.3l11.6,13.3V76.4c0-0.8,0.2-1.3,0.5-1.7
		c0.3-0.3,0.9-0.5,1.6-0.5h9c0.8,0,1.3,0.2,1.6,0.5c0.3,0.3,0.5,0.9,0.5,1.7v38.9c0,0.8-0.2,1.3-0.5,1.7c-0.3,0.3-0.9,0.5-1.6,0.5
		h-9c-0.8,0-1.3-0.2-1.6-0.5c-0.3-0.3-0.5-0.9-0.5-1.7v-7.4l-10.3-12.4v19.8c0,0.8-0.2,1.3-0.5,1.7
		C236.4,117.3,235.9,117.4,235.1,117.4z"/>
	<path id="XMLID_109_" class="st0" d="M289.5,117.4h-9.7c-0.8,0-1.3-0.2-1.6-0.5c-0.3-0.3-0.5-0.9-0.5-1.7V85.8h-8.8
		c-0.8,0-1.3-0.2-1.6-0.5c-0.3-0.3-0.5-0.9-0.5-1.7v-7.3c0-0.8,0.2-1.3,0.5-1.7c0.3-0.3,0.9-0.5,1.6-0.5h31.7c0.8,0,1.3,0.2,1.6,0.5
		c0.3,0.3,0.5,0.9,0.5,1.7v7.3c0,0.8-0.2,1.3-0.5,1.7c-0.3,0.3-0.9,0.5-1.6,0.5h-8.8v29.5c0,0.8-0.2,1.3-0.5,1.7
		C290.8,117.3,290.3,117.4,289.5,117.4z"/>
	<path id="XMLID_111_" class="st0" d="M338.5,117.4h-27.8c-0.8,0-1.3-0.2-1.6-0.5c-0.3-0.3-0.5-0.9-0.5-1.7V76.4
		c0-0.8,0.2-1.3,0.5-1.7c0.3-0.3,0.9-0.5,1.6-0.5h27.8c0.8,0,1.3,0.2,1.7,0.5c0.3,0.3,0.5,0.9,0.5,1.7v7c0,0.8-0.2,1.3-0.5,1.7
		c-0.3,0.3-0.9,0.5-1.7,0.5h-16.6v4.6h11.7c0.8,0,1.3,0.2,1.6,0.5c0.3,0.3,0.5,0.9,0.5,1.7v6.4c0,0.8-0.2,1.3-0.5,1.7
		s-0.9,0.5-1.6,0.5h-11.7v5.2h16.6c0.8,0,1.3,0.2,1.7,0.5c0.3,0.3,0.5,0.9,0.5,1.6v7c0,0.8-0.2,1.3-0.5,1.7
		C339.8,117.3,339.3,117.4,338.5,117.4z"/>
	<path id="XMLID_113_" class="st0" d="M358.9,117.4h-9c-0.8,0-1.3-0.2-1.6-0.5c-0.3-0.3-0.5-0.9-0.5-1.7V76.4c0-0.8,0.2-1.3,0.5-1.7
		c0.3-0.3,0.9-0.5,1.6-0.5h6.2c0.8,0,1.4,0.1,2,0.4c0.5,0.2,1.1,0.7,1.6,1.3l11.6,13.3V76.4c0-0.8,0.2-1.3,0.5-1.7
		c0.3-0.3,0.9-0.5,1.6-0.5h9c0.8,0,1.3,0.2,1.7,0.5c0.3,0.3,0.5,0.9,0.5,1.7v38.9c0,0.8-0.2,1.3-0.5,1.7c-0.3,0.3-0.9,0.5-1.7,0.5
		h-9c-0.8,0-1.3-0.2-1.6-0.5c-0.3-0.3-0.5-0.9-0.5-1.7v-7.4l-10.3-12.4v19.8c0,0.8-0.2,1.3-0.5,1.7
		C360.2,117.3,359.7,117.4,358.9,117.4z"/>
	<path id="XMLID_115_" class="st0" d="M413.3,117.4h-9.7c-0.8,0-1.3-0.2-1.7-0.5s-0.5-0.9-0.5-1.7V85.8h-8.8c-0.8,0-1.3-0.2-1.6-0.5
		c-0.3-0.3-0.5-0.9-0.5-1.7v-7.3c0-0.8,0.2-1.3,0.5-1.7c0.3-0.3,0.9-0.5,1.6-0.5h31.7c0.8,0,1.3,0.2,1.7,0.5
		c0.3,0.3,0.5,0.9,0.5,1.7v7.3c0,0.8-0.2,1.3-0.5,1.7s-0.9,0.5-1.7,0.5h-8.8v29.5c0,0.8-0.2,1.3-0.5,1.7
		C414.6,117.3,414.1,117.4,413.3,117.4z"/>
	<path id="XMLID_117_" class="st0" d="M469.1,106.1c0,1.8-0.3,3.5-0.8,5s-1.5,2.8-2.9,3.8c-1.4,1.1-3.3,1.9-5.7,2.5
		c-2.4,0.6-5.5,0.9-9.2,0.9s-6.8-0.3-9.2-0.9c-2.4-0.6-4.3-1.4-5.7-2.5c-1.4-1.1-2.3-2.3-2.9-3.8s-0.8-3.2-0.8-5V76.4
		c0-0.8,0.2-1.3,0.5-1.7c0.3-0.3,0.9-0.5,1.7-0.5h9.4c0.8,0,1.3,0.2,1.7,0.5c0.3,0.3,0.5,0.9,0.5,1.7v27.4c0,0.8,0.3,1.5,0.9,2
		c0.6,0.5,1.9,0.8,4,0.8c2.1,0,3.5-0.3,4.1-0.8s0.9-1.2,0.9-2V76.4c0-0.8,0.2-1.3,0.5-1.7c0.3-0.3,0.9-0.5,1.6-0.5h9.1
		c0.8,0,1.3,0.2,1.7,0.5c0.3,0.3,0.5,0.9,0.5,1.7V106.1z"/>
</g>
</svg>
